<?xml version="1.0" encoding="UTF-8" standalone="no"?>
<!-- Created with Inkscape (http://www.inkscape.org/) -->

<svg
   width="210mm"
   height="297mm"
   viewBox="0 0 210 297"
   version="1.1"
   id="svg1"
   xml:space="preserve"
   inkscape:export-filename="mockup.png"
   inkscape:export-xdpi="96"
   inkscape:export-ydpi="96"
   inkscape:version="1.4.2 (f4327f4, 2025-05-13)"
   sodipodi:docname="mockup.svg"
   xmlns:inkscape="http://www.inkscape.org/namespaces/inkscape"
   xmlns:sodipodi="http://sodipodi.sourceforge.net/DTD/sodipodi-0.dtd"
   xmlns="http://www.w3.org/2000/svg"
   xmlns:svg="http://www.w3.org/2000/svg"><sodipodi:namedview
     id="namedview1"
     pagecolor="#ffffff"
     bordercolor="#000000"
     borderopacity="0.25"
     inkscape:showpageshadow="2"
     inkscape:pageopacity="0.0"
     inkscape:pagecheckerboard="0"
     inkscape:deskcolor="#d1d1d1"
     inkscape:document-units="mm"
     showguides="false"
     inkscape:zoom="0.125"
     inkscape:cx="1748"
     inkscape:cy="-1724"
     inkscape:window-width="1600"
     inkscape:window-height="877"
     inkscape:window-x="-8"
     inkscape:window-y="-8"
     inkscape:window-maximized="1"
     inkscape:current-layer="layer1" /><defs
     id="defs1" /><g
     inkscape:label="Layer 1"
     inkscape:groupmode="layer"
     id="layer1"><rect
       style="opacity:1;fill:#ffffff;fill-opacity:1;stroke:#800000;stroke-width:4;stroke-dasharray:none"
       id="rect1"
       width="718.70355"
       height="673.14502"
       x="375.39359"
       y="-787.86285"
       inkscape:export-filename="rect2.png"
       inkscape:export-xdpi="17.766518"
       inkscape:export-ydpi="17.766518" /><text
       xml:space="preserve"
       style="font-weight:bold;font-size:64.77px;line-height:0.8;font-family:Poppins;-inkscape-font-specification:'Poppins, Bold';text-align:center;letter-spacing:0px;writing-mode:lr-tb;direction:ltr;text-anchor:middle;fill:#1a1a1a;fill-opacity:1;stroke-width:255.601"
       x="542.89691"
       y="-415.46249"
       id="text1"><tspan
         sodipodi:role="line"
         style="letter-spacing:0px;fill:#1a1a1a;fill-opacity:1;stroke-width:255.601"
         x="542.89691"
         y="-415.46249"
         id="tspan3">-96 Hari</tspan></text><text
       xml:space="preserve"
       style="font-weight:bold;font-size:22.8018px;line-height:0.8;font-family:Poppins;-inkscape-font-specification:'Poppins, Bold';text-align:center;letter-spacing:0px;writing-mode:lr-tb;direction:ltr;text-anchor:middle;fill:#1a1a1a;fill-opacity:1;stroke-width:89.9823"
       x="543.45599"
       y="-383.42944"
       id="text2"><tspan
         sodipodi:role="line"
         id="tspan2"
         style="letter-spacing:0px;fill:#1a1a1a;fill-opacity:1;stroke-width:89.9823"
         x="543.45599"
         y="-383.42944">Menuju 2026!</tspan></text><text
       xml:space="preserve"
       style="font-weight:bold;font-size:64.77px;line-height:0.8;font-family:Poppins;-inkscape-font-specification:'Poppins, Bold';text-align:center;letter-spacing:0px;writing-mode:lr-tb;direction:ltr;text-anchor:middle;fill:#1a1a1a;fill-opacity:1;stroke-width:255.601"
       x="926.20526"
       y="-419.19601"
       id="text4"><tspan
         sodipodi:role="line"
         style="letter-spacing:0px;fill:#1a1a1a;fill-opacity:1;stroke-width:255.601"
         x="926.20526"
         y="-419.19601"
         id="tspan4">-30 Hari</tspan></text><text
       xml:space="preserve"
       style="font-weight:bold;font-size:22.8018px;line-height:0.8;font-family:Poppins;-inkscape-font-specification:'Poppins, Bold';text-align:center;letter-spacing:0px;writing-mode:lr-tb;direction:ltr;text-anchor:middle;fill:#1a1a1a;fill-opacity:1;stroke-width:89.9823"
       x="946.67651"
       y="-387.16296"
       id="text5"><tspan
         sodipodi:role="line"
         id="tspan5"
         style="letter-spacing:0px;fill:#1a1a1a;fill-opacity:1;stroke-width:89.9823"
         x="946.67651"
         y="-387.16296">Menuju Oktober!</tspan></text><text
       xml:space="preserve"
       style="font-weight:bold;font-size:20.7782px;line-height:0.8;font-family:Poppins;-inkscape-font-specification:'Poppins, Bold';text-align:start;letter-spacing:0px;writing-mode:lr-tb;direction:ltr;text-anchor:start;fill:#1a1a1a;fill-opacity:1;stroke-width:81.9966"
       x="812.52502"
       y="-334.02548"
       id="text6"><tspan
         sodipodi:role="line"
         id="tspan6"
         style="text-align:start;letter-spacing:0px;text-anchor:start;fill:#1a1a1a;fill-opacity:1;stroke-width:81.9966"
         x="812.52502"
         y="-334.02548">96 hari Menuju Summer</tspan></text><g
       id="g15"
       transform="matrix(1.2288013,0,0,1.2288013,-168.11066,136.79585)"><text
         xml:space="preserve"
         style="font-weight:bold;font-size:80.8738px;line-height:0.8;font-family:Poppins;-inkscape-font-specification:'Poppins, Bold';text-align:center;letter-spacing:0px;writing-mode:lr-tb;direction:ltr;text-anchor:middle;fill:#1a1a1a;fill-opacity:1;stroke-width:319.151"
         x="737.05029"
         y="-544.68158"
         id="text7"><tspan
           sodipodi:role="line"
           style="letter-spacing:0px;fill:#1a1a1a;fill-opacity:1;stroke-width:319.151"
           x="737.05029"
           y="-544.68158"
           id="tspan7">24:30!</tspan></text><text
         xml:space="preserve"
         style="font-weight:bold;font-size:28.471px;line-height:0.8;font-family:Poppins;-inkscape-font-specification:'Poppins, Bold';text-align:center;letter-spacing:0px;writing-mode:lr-tb;direction:ltr;text-anchor:middle;fill:#1a1a1a;fill-opacity:1;stroke-width:112.355"
         x="735.27203"
         y="-621.22882"
         id="text8"><tspan
           sodipodi:role="line"
           id="tspan8"
           style="letter-spacing:0px;fill:#1a1a1a;fill-opacity:1;stroke-width:112.355"
           x="735.27203"
           y="-621.22882">Waktu hari Senin ini sisa</tspan></text></g><text
       xml:space="preserve"
       style="font-weight:bold;font-size:80.8738px;line-height:0.8;font-family:Poppins;-inkscape-font-specification:'Poppins, Bold';text-align:center;letter-spacing:0px;writing-mode:lr-tb;direction:ltr;text-anchor:middle;white-space:pre;inline-size:1500.47;fill:#1a1a1a;fill-opacity:1;stroke-width:319.151"
       x="518.67059"
       y="-79.574165"
       id="text9"
       transform="matrix(0.49395791,0,0,0.49395791,477.9046,-149.30277)"><tspan
         x="518.67059"
         y="-79.574165"
         id="tspan10">selesaikan modul untuk anak<tspan
   y="-79.574165"
   id="tspan11"> </tspan></tspan><tspan
         x="518.67059"
         y="-14.87512"
         id="tspan19">magang</tspan></text><path
       style="opacity:1;fill:none;fill-opacity:1;stroke:#000000;stroke-width:3;stroke-dasharray:none"
       d="M 375.23115,-505.11337 H 1094.2596"
       id="path9" /><text
       xml:space="preserve"
       style="font-weight:bold;font-size:22.8018px;line-height:0.8;font-family:Poppins;-inkscape-font-specification:'Poppins, Bold';text-align:center;letter-spacing:0px;writing-mode:lr-tb;direction:ltr;text-anchor:middle;fill:#1a1a1a;fill-opacity:1;stroke-width:89.9823"
       x="552.27026"
       y="-473.69427"
       id="text12-8"><tspan
         sodipodi:role="line"
         id="tspan12-2"
         style="letter-spacing:0px;fill:#1a1a1a;fill-opacity:1;stroke-width:89.9823"
         x="552.27026"
         y="-473.69427">2025</tspan></text><path
       style="opacity:1;fill:none;fill-opacity:1;stroke:#000000;stroke-width:3;stroke-dasharray:none"
       d="M 375.23115,-318.40785 H 1094.2596"
       id="path10" /><path
       style="opacity:1;fill:none;fill-opacity:1;stroke:#000000;stroke-width:3;stroke-dasharray:none"
       d="M 375.23115,-365.75782 H 1094.2596"
       id="path11" /><path
       style="opacity:1;fill:none;fill-opacity:1;stroke:#000000;stroke-width:5.68576;stroke-linecap:round;stroke-linejoin:round;stroke-dasharray:none"
       d="m 1050.1141,-759.43029 h 26.4144"
       id="path12" /><text
       xml:space="preserve"
       style="font-weight:bold;font-size:22.8018px;line-height:0.8;font-family:Poppins;-inkscape-font-specification:'Poppins, Bold';text-align:center;letter-spacing:0px;writing-mode:lr-tb;direction:ltr;text-anchor:middle;fill:#1a1a1a;fill-opacity:1;stroke-width:89.9823"
       x="943.62878"
       y="-475.52304"
       id="text12"><tspan
         sodipodi:role="line"
         id="tspan12"
         style="letter-spacing:0px;fill:#1a1a1a;fill-opacity:1;stroke-width:89.9823"
         x="943.62878"
         y="-475.52304">1 September</tspan></text><text
       xml:space="preserve"
       style="font-weight:bold;font-size:20.7782px;line-height:0.8;font-family:Poppins;-inkscape-font-specification:'Poppins, Bold';text-align:start;letter-spacing:0px;writing-mode:lr-tb;direction:ltr;text-anchor:start;fill:#1a1a1a;fill-opacity:1;stroke-width:81.9966"
       x="395.76199"
       y="-334.02548"
       id="text13"><tspan
         sodipodi:role="line"
         id="tspan13"
         style="text-align:start;letter-spacing:0px;text-anchor:start;fill:#1a1a1a;fill-opacity:1;stroke-width:81.9966"
         x="395.76199"
         y="-334.02548">Musim Sekarang : Spring</tspan></text><text
       xml:space="preserve"
       style="font-weight:bold;font-size:80.8738px;line-height:0.8;font-family:Poppins;-inkscape-font-specification:'Poppins, Bold';text-align:start;letter-spacing:0px;writing-mode:lr-tb;direction:ltr;text-anchor:start;white-space:pre;inline-size:745.099;fill:#1a1a1a;fill-opacity:1;stroke-width:319.151"
       x="150.20947"
       y="-79.574165"
       id="text14"
       transform="matrix(0.5206799,0,0,0.5206799,506.68838,-230.97778)"><tspan
         x="150.20947"
         y="-79.574165"
         id="tspan20">Fokus Saat ini</tspan></text><text
       xml:space="preserve"
       style="font-weight:bold;font-size:66.0284px;line-height:0.8;font-family:Poppins;-inkscape-font-specification:'Poppins, Bold';text-align:center;letter-spacing:0px;writing-mode:lr-tb;direction:ltr;text-anchor:middle;fill:#1a1a1a;fill-opacity:1;stroke-width:260.567"
       x="737.10223"
       y="-699.3891"
       id="text15"><tspan
         sodipodi:role="line"
         style="letter-spacing:0px;fill:#1a1a1a;fill-opacity:1;stroke-width:260.567"
         x="744.10126"
         y="-699.3891"
         id="tspan15">Year Of RaiseUp! </tspan></text><g
       style="fill:currentColor"
       id="g16"
       transform="matrix(2.7904378,0,0,2.7904378,392.19203,-772.28573)"><path
         d="M 8,4.754 A 3.246,3.246 0 1 0 8,11.246 3.246,3.246 0 0 0 8,4.754 M 5.754,8 a 2.246,2.246 0 1 1 4.492,0 2.246,2.246 0 0 1 -4.492,0"
         id="path1" /><path
         d="m 9.796,1.343 c -0.527,-1.79 -3.065,-1.79 -3.592,0 L 6.11,1.662 A 0.873,0.873 0 0 1 4.855,2.182 L 4.563,2.022 C 2.923,1.13 1.13,2.924 2.023,4.563 L 2.182,4.855 A 0.873,0.873 0 0 1 1.662,6.11 L 1.343,6.204 c -1.79,0.527 -1.79,3.065 0,3.592 L 1.662,9.89 a 0.873,0.873 0 0 1 0.52,1.255 l -0.16,0.292 c -0.892,1.64 0.901,3.434 2.541,2.54 l 0.292,-0.159 a 0.873,0.873 0 0 1 1.255,0.52 l 0.094,0.319 c 0.527,1.79 3.065,1.79 3.592,0 L 9.89,14.338 a 0.873,0.873 0 0 1 1.255,-0.52 l 0.292,0.16 c 1.64,0.893 3.434,-0.902 2.54,-2.541 l -0.159,-0.292 a 0.873,0.873 0 0 1 0.52,-1.255 l 0.319,-0.094 c 1.79,-0.527 1.79,-3.065 0,-3.592 L 14.338,6.11 a 0.873,0.873 0 0 1 -0.52,-1.255 l 0.16,-0.292 C 14.871,2.923 13.076,1.13 11.437,2.023 L 11.145,2.182 A 0.873,0.873 0 0 1 9.89,1.662 Z M 7.163,1.626 c 0.246,-0.835 1.428,-0.835 1.674,0 L 8.931,1.945 A 1.873,1.873 0 0 0 11.624,3.06 L 11.915,2.9 c 0.764,-0.415 1.6,0.42 1.184,1.185 L 12.94,4.377 a 1.873,1.873 0 0 0 1.116,2.692 l 0.318,0.094 c 0.835,0.246 0.835,1.428 0,1.674 l -0.319,0.094 a 1.873,1.873 0 0 0 -1.115,2.693 l 0.16,0.291 c 0.415,0.764 -0.42,1.6 -1.185,1.184 L 11.624,12.94 a 1.873,1.873 0 0 0 -2.693,1.116 l -0.094,0.318 c -0.246,0.835 -1.428,0.835 -1.674,0 L 7.069,14.055 A 1.873,1.873 0 0 0 4.377,12.94 L 4.085,13.1 C 3.321,13.515 2.485,12.68 2.901,11.915 L 3.06,11.624 A 1.873,1.873 0 0 0 1.945,8.93 L 1.626,8.836 C 0.791,8.59 0.791,7.408 1.626,7.162 L 1.945,7.068 A 1.873,1.873 0 0 0 3.06,4.377 L 2.9,4.085 C 2.485,3.321 3.32,2.485 4.085,2.901 L 4.377,3.06 A 1.873,1.873 0 0 0 7.069,1.945 Z"
         id="path2" /></g><rect
       style="opacity:1;fill:#ffffff;fill-opacity:1;stroke:#800000;stroke-width:4.86598;stroke-dasharray:none"
       id="rect16"
       width="396.03943"
       height="248.92015"
       x="-45.194244"
       y="-788.4754" /><text
       xml:space="preserve"
       style="font-weight:bold;font-size:45.3721px;line-height:0.8;font-family:Poppins;-inkscape-font-specification:'Poppins, Bold';text-align:center;letter-spacing:0px;writing-mode:lr-tb;direction:ltr;text-anchor:middle;fill:#1a1a1a;fill-opacity:1;stroke-width:179.051"
       x="152.71205"
       y="-729.24329"
       id="text16"><tspan
         sodipodi:role="line"
         style="letter-spacing:0px;fill:#1a1a1a;fill-opacity:1;stroke-width:179.051"
         x="152.71205"
         y="-729.24329"
         id="tspan16">Pengaturan</tspan></text><text
       xml:space="preserve"
       style="font-weight:bold;font-size:23.2551px;line-height:0.8;font-family:Poppins;-inkscape-font-specification:'Poppins, Bold';text-align:center;letter-spacing:0px;writing-mode:lr-tb;direction:ltr;text-anchor:middle;fill:#1a1a1a;fill-opacity:1;stroke-width:91.771"
       x="63.657829"
       y="-684.99408"
       id="text17"><tspan
         sodipodi:role="line"
         style="letter-spacing:0px;fill:#1a1a1a;fill-opacity:1;stroke-width:91.771"
         x="63.657829"
         y="-684.99408"
         id="tspan17">Fokus sekarang</tspan></text><rect
       style="opacity:1;fill:#ffffff;fill-opacity:1;stroke:#800000;stroke-width:2.48156;stroke-dasharray:none"
       id="rect17"
       width="352.93744"
       height="72.646095"
       x="-27.385025"
       y="-672.64923" /><text
       xml:space="preserve"
       style="font-weight:bold;font-size:80.8738px;line-height:0.8;font-family:Poppins;-inkscape-font-specification:'Poppins, Bold';text-align:start;letter-spacing:0px;writing-mode:lr-tb;direction:ltr;text-anchor:start;white-space:pre;inline-size:1500.47;fill:#1a1a1a;fill-opacity:1;stroke-width:319.151"
       x="-97.264389"
       y="-79.574165"
       id="text9-7"
       transform="matrix(0.26007239,0,0,0.26007239,14.782858,-622.48057)"><tspan
         x="-97.264389"
         y="-79.574165"
         id="tspan21">selesaikan modul untuk anak </tspan><tspan
         x="-97.264389"
         y="-14.87512"
         id="tspan22">magang</tspan></text><g
       id="g18"
       transform="translate(4.6753769)"><rect
         style="opacity:1;fill:#ffffff;fill-opacity:1;stroke:#800000;stroke-width:1.13099;stroke-dasharray:none"
         id="rect18"
         width="151.70041"
         height="35.107166"
         x="72.299889"
         y="-590.76422" /><text
         xml:space="preserve"
         style="font-weight:bold;font-size:20.814px;line-height:0.8;font-family:Poppins;-inkscape-font-specification:'Poppins, Bold';text-align:center;letter-spacing:0px;writing-mode:lr-tb;direction:ltr;text-anchor:middle;fill:#1a1a1a;fill-opacity:1;stroke-width:82.1379"
         x="148.30618"
         y="-567.64288"
         id="text18"><tspan
           sodipodi:role="line"
           style="letter-spacing:0px;fill:#1a1a1a;fill-opacity:1;stroke-width:82.1379"
           x="148.30618"
           y="-567.64288"
           id="tspan18">Simpan</tspan></text></g><path
       style="opacity:1;fill:none;fill-opacity:1;stroke:#800000;stroke-width:4;stroke-linecap:round;stroke-linejoin:round;stroke-dasharray:none"
       d="m 414.33749,-771.52499 v -83.07917 H 139.7 v 64.02917"
       id="path19" /></g></svg>
